<?xml version="1.0" encoding="UTF-8"?>
<svg version="1.1" xmlns="http://www.w3.org/2000/svg" width="300" height="300">
<path d="M0 0 C99 0 198 0 300 0 C300 99 300 198 300 300 C201 300 102 300 0 300 C0 201 0 102 0 0 Z " fill="#FEFEFE" transform="translate(0,0)"/>
<path d="M0 0 C2.69760811 0.06470278 4.45813591 0.4943451 6.45410156 2.35693359 C8.0746782 4.25715787 9.60818808 6.2034151 11.125 8.1875 C11.69412109 8.91001953 12.26324219 9.63253906 12.84960938 10.37695312 C14.57817987 12.57572563 16.28976036 14.78695594 18 17 C19.38967022 18.77486566 20.78337577 20.54649581 22.17749023 22.31787109 C23.06420393 23.44570151 23.94911431 24.57495191 24.83227539 25.70556641 C28.35134435 30.20565133 31.94785679 34.63898558 35.5625 39.0625 C40.27770837 44.8353252 44.86260142 50.68187877 49.3671875 56.62109375 C51.3541784 59.20729877 53.41592453 61.7206052 55.5078125 64.22265625 C56.10722656 64.94324219 56.70664063 65.66382812 57.32421875 66.40625 C58.50339463 67.81819162 59.69063183 69.22344895 60.88671875 70.62109375 C61.42167969 71.26304688 61.95664063 71.905 62.5078125 72.56640625 C63.22928467 73.41634155 63.22928467 73.41634155 63.96533203 74.28344727 C65 76 65 76 65 80 C62.0780231 81.46098845 59.50106525 81.11134901 56.2421875 81.09765625 C55.02901855 81.09515869 53.81584961 81.09266113 52.56591797 81.09008789 C51.01791504 81.08098389 49.46991211 81.07187988 47.875 81.0625 C42.96625 81.041875 38.0575 81.02125 33 81 C33 96.18 33 111.36 33 127 C38.445 126.01 38.445 126.01 44 125 C47.63549805 124.77294922 47.63549805 124.77294922 50.76171875 124.8046875 C51.78998779 124.80968262 52.81825684 124.81467773 53.87768555 124.81982422 C55.7635437 124.84713623 55.7635437 124.84713623 57.6875 124.875 C63.7821875 124.936875 63.7821875 124.936875 70 125 C70 114.77 70 104.54 70 94 C75 93 75 93 77.76953125 94.6328125 C79.27580078 95.86644531 79.27580078 95.86644531 80.8125 97.125 C81.36873047 97.57294922 81.92496094 98.02089844 82.49804688 98.48242188 C84.34396592 99.97421753 86.17169246 101.48669059 88 103 C89.31522576 104.07176278 90.6316552 105.14204996 91.94921875 106.2109375 C93.98706093 107.86460239 96.02380829 109.51945715 98.0559082 111.18017578 C102.15329806 114.52504393 106.29366448 117.79318975 110.5 121 C116.07927289 125.25514385 121.52821838 129.65234881 126.96191406 134.09130859 C131.52384872 137.81346767 136.11806347 141.49031455 140.75 145.125 C141.60839478 145.79873657 141.60839478 145.79873657 142.48413086 146.48608398 C144.74315607 148.25373643 146.95503248 149.97193204 149.390625 151.4921875 C151 153 151 153 151.625 155.375 C150.70076344 159.25679357 148.09870148 160.78805458 145 163 C143.70705748 163.96704652 142.4154415 164.93586859 141.125 165.90625 C140.10792969 166.66228516 140.10792969 166.66228516 139.0703125 167.43359375 C135.63839876 170.03019263 132.32465099 172.76834231 129 175.5 C123.47704087 180.0105933 117.90694684 184.4521811 112.28466797 188.83813477 C108.52993138 191.77526501 104.82388332 194.76567396 101.13769531 197.78833008 C94.91315067 202.88862108 88.63826798 207.91834516 82.25 212.8125 C81.58242676 213.33448975 80.91485352 213.85647949 80.22705078 214.39428711 C76.79943796 216.98945449 75.42466705 218 71 218 C69.53901155 215.0780231 69.88865099 212.50106525 69.90234375 209.2421875 C69.90446617 208.24761032 69.90446617 208.24761032 69.90663147 207.23294067 C69.91223246 205.11358137 69.924785 202.99432741 69.9375 200.875 C69.94251488 199.43880361 69.94707781 198.00260556 69.95117188 196.56640625 C69.96220218 193.04423655 69.97946741 189.52212855 70 186 C66.49859347 186.02303557 63.00035938 186.10065902 59.5 186.1875 C58.51773438 186.19330078 57.53546875 186.19910156 56.5234375 186.20507812 C48.96376684 186.43186824 43.8523249 188.16822083 38.44360352 193.5480957 C34.00246767 198.61885696 33.84752398 202.83698273 33.82641602 209.29516602 C33.8163855 210.56384521 33.8163855 210.56384521 33.80615234 211.8581543 C33.79210333 213.69478987 33.7802088 215.53144288 33.77020454 217.36810493 C33.7538064 220.27158609 33.73057113 223.17493716 33.70530701 226.07835388 C33.63448298 234.33333883 33.57428782 242.58837561 33.52319336 250.84350586 C33.49147012 255.89150403 33.45021701 260.93935063 33.40299797 265.98722649 C33.38694371 267.91418685 33.37463806 269.8411821 33.36609077 271.76819038 C33.35398855 274.45702721 33.32986254 277.14550483 33.30297852 279.83422852 C33.30238937 280.63583908 33.30180023 281.43744965 33.30119324 282.26335144 C33.22790125 287.77209875 33.22790125 287.77209875 31 290 C28.5643158 290.24723816 28.5643158 290.24723816 25.46459961 290.24291992 C23.72786232 290.24753487 23.72786232 290.24753487 21.95603943 290.25224304 C20.70081985 290.24505753 19.44560028 290.23787201 18.15234375 290.23046875 C16.87017471 290.23001053 15.58800568 290.22955231 14.26698303 290.2290802 C11.55252676 290.22751538 8.83820239 290.21922513 6.1237793 290.20581055 C2.6375801 290.1888037 -0.8484743 290.18499668 -4.33471012 290.18575573 C-7.65154504 290.1854191 -10.96833206 290.17658537 -14.28515625 290.16796875 C-16.17102196 290.16629951 -16.17102196 290.16629951 -18.09498596 290.16459656 C-19.24965866 290.15821671 -20.40433136 290.15183685 -21.59399414 290.14526367 C-22.61610489 290.14145187 -23.63821564 290.13764008 -24.69129944 290.13371277 C-27 290 -27 290 -28 289 C-28.109148 286.4311247 -28.15422589 283.8881486 -28.15771484 281.31835938 C-28.16279556 280.51337006 -28.16787628 279.70838074 -28.17311096 278.8789978 C-28.18384118 277.123643 -28.19245087 275.36827429 -28.19923019 273.61289978 C-28.21099789 270.82946597 -28.23044899 268.04618883 -28.25234985 265.26281738 C-28.31401023 257.34616364 -28.36787205 249.4295221 -28.40136719 241.51269531 C-28.42239091 236.67439884 -28.45776573 231.83638153 -28.50212479 226.99824524 C-28.51623535 225.15801802 -28.524996 223.31774133 -28.52817917 221.47746277 C-28.53312431 218.89028058 -28.55637719 216.30382896 -28.58349609 213.71679688 C-28.58048996 212.96526337 -28.57748383 212.21372986 -28.5743866 211.43942261 C-28.67252507 205.08986801 -29.83297476 198.71558184 -33.8671875 193.66015625 C-34.52976562 193.13292969 -35.19234375 192.60570312 -35.875 192.0625 C-36.53242187 191.51722656 -37.18984375 190.97195312 -37.8671875 190.41015625 C-41.80278678 187.80804757 -45.38897393 186.75868808 -50.08203125 186.5859375 C-50.9222583 186.55032715 -51.76248535 186.5147168 -52.62817383 186.47802734 C-53.67900146 186.44402832 -54.7298291 186.4100293 -55.8125 186.375 C-59.174375 186.25125 -62.53625 186.1275 -66 186 C-66 196.23 -66 206.46 -66 217 C-71 218 -71 218 -74.05859375 216.078125 C-75.19718486 215.15029653 -76.32280014 214.20639929 -77.4375 213.25 C-78.68844355 212.22091818 -79.93975569 211.19228428 -81.19140625 210.1640625 C-81.82578613 209.63458008 -82.46016602 209.10509766 -83.11376953 208.55957031 C-85.98553359 206.18514256 -88.93199644 203.90997729 -91.875 201.625 C-97.77259637 197.00730752 -103.58618803 192.28972476 -109.39013672 187.55517578 C-112.73208754 184.83195398 -116.08320431 182.12930563 -119.5 179.5 C-123.76469694 176.21503074 -127.94554397 172.82974275 -132.125 169.4375 C-133.12950195 168.62345703 -133.12950195 168.62345703 -134.15429688 167.79296875 C-138.49559931 164.26164278 -142.76466631 160.65778818 -147 157 C-146.25367758 153.57814898 -145.52808256 152.20145049 -142.8125 149.9375 C-142.08675781 149.33035156 -141.36101562 148.72320312 -140.61328125 148.09765625 C-136.99641713 145.19443348 -133.35608788 142.32208952 -129.69848633 139.47045898 C-125.08461607 135.87082636 -120.53243632 132.20148966 -116 128.5 C-110.48202533 123.99647561 -104.9201017 119.55818733 -99.30444336 115.17724609 C-94.00317795 111.03013629 -88.7871653 106.78079471 -83.59179688 102.50195312 C-81.74015653 100.98524464 -79.87299776 99.49021351 -78 98 C-77.08323486 97.24348145 -77.08323486 97.24348145 -76.14794922 96.47167969 C-74.33984375 95.0546875 -74.33984375 95.0546875 -71 93 C-69.35 93.33 -67.7 93.66 -66 94 C-66 104.23 -66 114.46 -66 125 C-57.98374153 124.92162458 -57.98374153 124.92162458 -49.96777344 124.81982422 C-48.94200195 124.8148291 -47.91623047 124.80983398 -46.859375 124.8046875 C-45.31975098 124.78897705 -45.31975098 124.78897705 -43.74902344 124.77294922 C-38.4568179 125.09345919 -33.22976403 126.12837266 -28 127 C-28.33 112.15 -28.66 97.3 -29 82 C-38.82785307 81.71068133 -38.82785307 81.71068133 -48.65600586 81.43188477 C-49.87167236 81.39377686 -51.08733887 81.35566895 -52.33984375 81.31640625 C-53.59144287 81.27974854 -54.84304199 81.24309082 -56.13256836 81.20532227 C-59 81 -59 81 -60 80 C-60.3671875 77.8125 -60.3671875 77.8125 -60 75 C-58.44123157 72.81890958 -56.9267521 70.95732268 -55.125 69 C-54.10167333 67.84204243 -53.08089603 66.68182757 -52.0625 65.51953125 C-51.54558594 64.93252441 -51.02867188 64.34551758 -50.49609375 63.74072266 C-48.25772558 61.13635499 -46.19832735 58.42579254 -44.125 55.6875 C-40.36685689 50.73128353 -36.49857732 45.87857587 -32.5625 41.0625 C-28.03919098 35.52734613 -23.58133892 29.94914457 -19.18408203 24.31347656 C-14.94397291 18.8944405 -10.60105685 13.56081473 -6.23828125 8.24023438 C-5.71492187 7.60021484 -5.1915625 6.96019531 -4.65234375 6.30078125 C-3.95612915 5.45253784 -3.95612915 5.45253784 -3.24584961 4.5871582 C-2.08928002 3.11373886 -1.03902584 1.55853877 0 0 Z " fill="#07080B" transform="translate(148,5)"/>
<path d="M0 0 C0.33 8.58 0.66 17.16 1 26 C3.80951172 26.03867188 3.80951172 26.03867188 6.67578125 26.078125 C35.47799795 26.64512794 57.66826375 30.47084486 79.1640625 51.07421875 C96.30596907 68.97725244 99.33574739 90.87677755 99.1953125 114.546875 C99.19157473 116.41302335 99.18873138 118.27917368 99.18673706 120.14532471 C99.17916067 125.01800105 99.15956483 129.89055504 99.1373291 134.76318359 C99.11311002 140.63043694 99.1040611 146.49773156 99.09242249 152.36502075 C99.07313605 161.24343183 99.0347719 170.12157533 99 179 C83.16 179 67.32 179 51 179 C50.98582031 173.12445313 50.97164063 167.24890625 50.95703125 161.1953125 C50.93695852 157.45827411 50.91542636 153.72135697 50.88867188 149.984375 C50.84640548 144.06147562 50.80935113 138.13888384 50.80444336 132.21582031 C50.80014401 127.43687115 50.77154617 122.65861229 50.72656822 117.879879 C50.71364537 116.06281439 50.70926694 114.24566695 50.71384621 112.42856216 C50.84014592 97.07495866 50.84014592 97.07495866 43.22688293 84.1164856 C36.71506453 78.03659149 29.85522763 75.87694293 21.078125 75.8671875 C19.97082031 75.86589844 18.86351563 75.86460937 17.72265625 75.86328125 C16.57667969 75.86714844 15.43070312 75.87101562 14.25 75.875 C13.08855469 75.87113281 11.92710938 75.86726563 10.73046875 75.86328125 C9.07724609 75.86521484 9.07724609 75.86521484 7.390625 75.8671875 C5.8751709 75.86887939 5.8751709 75.86887939 4.32910156 75.87060547 C2.03957115 75.73816389 2.03957115 75.73816389 1 77 C0.84193469 78.92478813 0.748865 80.8549921 0.68359375 82.78515625 C0.64169922 83.95498047 0.59980469 85.12480469 0.55664062 86.33007812 C0.51732422 87.56177734 0.47800781 88.79347656 0.4375 90.0625 C0.37272461 91.91584961 0.37272461 91.91584961 0.30664062 93.80664062 C0.20015802 96.87097335 0.09814576 99.93539073 0 103 C-3.00758776 101.2491945 -5.81415167 99.46749776 -8.49609375 97.25 C-9.12974854 96.72978271 -9.76340332 96.20956543 -10.41625977 95.67358398 C-11.08326904 95.12130127 -11.75027832 94.56901855 -12.4375 94 C-13.87164111 92.8232983 -15.30655049 91.6475324 -16.7421875 90.47265625 C-17.81678223 89.59311279 -17.81678223 89.59311279 -18.91308594 88.69580078 C-21.93491835 86.24029681 -24.99398082 83.83424444 -28.0625 81.4375 C-33.52818858 77.16507439 -38.95955337 72.85241334 -44.36181641 68.5 C-47.56384863 65.92560306 -50.78684692 63.38774126 -54.05859375 60.90234375 C-54.70957031 60.40412109 -55.36054687 59.90589844 -56.03125 59.39257812 C-57.27657936 58.44199373 -58.52768493 57.49891649 -59.78515625 56.56445312 C-61.24566127 55.4452987 -62.6311895 54.22960943 -64 53 C-64 52.01 -64 51.02 -64 50 C-62.16984239 48.20024368 -60.36472656 46.60650947 -58.375 45 C-57.79032959 44.51724609 -57.20565918 44.03449219 -56.60327148 43.53710938 C-50.73251208 38.7160677 -44.75455744 34.02833596 -38.75732422 29.36621094 C-29.24507265 21.97102342 -19.83171269 14.46474274 -10.49609375 6.84765625 C-9.89651855 6.36055176 -9.29694336 5.87344727 -8.67919922 5.37158203 C-7.16312059 4.13323807 -5.66076595 2.87813819 -4.16015625 1.62109375 C-2 0 -2 0 0 0 Z " fill="#1266F6" transform="translate(75,109)"/>
<path d="M0 0 C0.66 0 1.32 0 2 0 C3.68467264 1.9639171 5.25509766 3.93808704 6.8125 6 C7.8072784 7.29267996 8.80342705 8.58430633 9.80078125 9.875 C10.32365723 10.55304687 10.8465332 11.23109375 11.38525391 11.9296875 C14.03712124 15.32972303 16.76932219 18.66318246 19.5 22 C24.00248939 27.5154668 28.44331096 33.07240123 32.81616211 38.69116211 C35.33480734 41.9166663 37.89520399 45.10063119 40.50390625 48.25390625 C41.09558594 48.97126953 41.68726563 49.68863281 42.296875 50.42773438 C43.44643066 51.81762855 44.60113282 53.20328733 45.76171875 54.58398438 C46.54675781 55.5343457 46.54675781 55.5343457 47.34765625 56.50390625 C47.81179932 57.05892822 48.27594238 57.6139502 48.75415039 58.18579102 C50.23669558 60.34467664 51.10314737 62.54723799 52 65 C51.2479126 65.02505615 50.4958252 65.0501123 49.72094727 65.07592773 C46.33460804 65.19150514 42.94857387 65.31440345 39.5625 65.4375 C38.37849609 65.47681641 37.19449219 65.51613281 35.97460938 65.55664062 C34.84990234 65.59853516 33.72519531 65.64042969 32.56640625 65.68359375 C31.52427979 65.72025146 30.48215332 65.75690918 29.40844727 65.79467773 C27.0500174 65.73515341 27.0500174 65.73515341 26 67 C25.87700834 68.68709347 25.82214742 70.37920903 25.79467773 72.07055664 C25.77473251 73.15160172 25.75478729 74.23264679 25.73423767 75.34645081 C25.71752518 76.5224736 25.70081268 77.6984964 25.68359375 78.91015625 C25.6524221 80.70591347 25.6524221 80.70591347 25.62062073 82.53794861 C25.55499721 86.37940487 25.49618097 90.22093201 25.4375 94.0625 C25.39432695 96.65951267 25.35071307 99.25651806 25.30664062 101.85351562 C25.19930284 108.23560117 25.09756069 114.61775793 25 121 C24.17068466 121.33709991 23.34136932 121.67419983 22.48692322 122.02151489 C20.85938866 122.68979813 20.85938866 122.68979813 19.19897461 123.37158203 C18.12215927 123.81180695 17.04534393 124.25203186 15.93589783 124.70559692 C11.85672009 126.50405876 8.69244147 128.96110487 5.25390625 131.7421875 C3 133 3 133 0.50390625 132.8671875 C-2.16822932 131.94173649 -4.2541516 130.78827622 -6.625 129.25 C-10.18771232 126.93970873 -13.82783317 125.12996453 -17.69287109 123.38964844 C-18.68596283 122.94151794 -19.67905457 122.49338745 -20.70223999 122.03167725 C-21.46050079 121.69122375 -22.2187616 121.35077026 -23 121 C-23.01030746 120.3257045 -23.02061493 119.651409 -23.03123474 118.9566803 C-23.13905769 111.96556418 -23.25367443 104.97458333 -23.37231445 97.98364258 C-23.41574124 95.37136656 -23.45741038 92.75906072 -23.49731445 90.14672852 C-23.55483007 86.40111281 -23.61857764 82.65564831 -23.68359375 78.91015625 C-23.70030624 77.73413345 -23.71701874 76.55811066 -23.73423767 75.34645081 C-23.75418289 74.26540573 -23.77412811 73.18436066 -23.79467773 72.07055664 C-23.81799416 70.63493126 -23.81799416 70.63493126 -23.84178162 69.17030334 C-23.7606861 67.02137306 -23.7606861 67.02137306 -25 66 C-26.92478813 65.84193469 -28.8549921 65.748865 -30.78515625 65.68359375 C-31.95498047 65.64169922 -33.12480469 65.59980469 -34.33007812 65.55664062 C-35.56177734 65.51732422 -36.79347656 65.47800781 -38.0625 65.4375 C-39.29806641 65.39431641 -40.53363281 65.35113281 -41.80664062 65.30664062 C-44.87097335 65.20015802 -47.93539073 65.09814576 -51 65 C-47.36467247 60.12473398 -43.69880849 55.27880531 -39.9375 50.5 C-39.4734375 49.90960938 -39.009375 49.31921875 -38.53125 48.7109375 C-34.35890279 43.42079966 -30.10791453 38.19627609 -25.84863281 32.97607422 C-21.33715255 27.43803762 -16.91467553 21.83452052 -12.515625 16.20703125 C-9.56696113 12.43766347 -6.56718836 8.70993155 -3.55859375 4.98828125 C-2.29850246 3.38079637 -1.13297942 1.69946913 0 0 Z " fill="#C5E0F6" transform="translate(149,14)"/>
<path d="M0 0 C2.96003018 1.48001509 4.85211918 2.54599133 7.29296875 4.58203125 C7.91421631 5.09499756 8.53546387 5.60796387 9.17553711 6.13647461 C9.83948486 6.68956299 10.50343262 7.24265137 11.1875 7.8125 C16.85024852 12.47697218 22.58313952 17.01613904 28.4375 21.4375 C35.83844414 27.04024333 43.01743279 32.8792111 50.1484375 38.8203125 C52.49835547 40.77452788 54.86561268 42.69245764 57.2890625 44.5546875 C58.66191406 45.61042969 58.66191406 45.61042969 60.0625 46.6875 C60.83722656 47.26886719 61.61195313 47.85023438 62.41015625 48.44921875 C62.93480469 48.96097656 63.45945312 49.47273438 64 50 C64 53 64 53 62.70922852 54.41943359 C62.10522217 54.90750488 61.50121582 55.39557617 60.87890625 55.8984375 C60.19957031 56.45337891 59.52023437 57.00832031 58.8203125 57.58007812 C58.07523437 58.17240234 57.33015625 58.76472656 56.5625 59.375 C55.79550781 59.99568359 55.02851563 60.61636719 54.23828125 61.25585938 C48.37138319 65.97717849 42.39807517 70.55456713 36.39013672 75.09423828 C31.21450465 79.02094969 26.18188353 83.09584542 21.1875 87.25 C2.24405172 103 2.24405172 103 0 103 C-0.02505615 102.21761963 -0.0501123 101.43523926 -0.07592773 100.62915039 C-0.19149788 97.10675051 -0.31439949 93.5846444 -0.4375 90.0625 C-0.47681641 88.83080078 -0.51613281 87.59910156 -0.55664062 86.33007812 C-0.59853516 85.16025391 -0.64042969 83.99042969 -0.68359375 82.78515625 C-0.72025146 81.70113525 -0.75690918 80.61711426 -0.79467773 79.50024414 C-0.72364265 77.060737 -0.72364265 77.060737 -2 76 C-6.26138628 75.62961418 -10.53721838 75.62771997 -14.8125 75.5625 C-16.58657227 75.49385742 -16.58657227 75.49385742 -18.39648438 75.42382812 C-29.62023155 75.28222298 -37.44495643 78.87933499 -46 86 C-46.27972656 85.06800781 -46.55945313 84.13601562 -46.84765625 83.17578125 C-50.81150503 70.40038097 -56.32225487 59.28871267 -65 49 C-69 44.17948718 -69 44.17948718 -69 42 C-66.77845886 40.42792581 -64.58543327 39.00999242 -62.25 37.625 C-61.5698584 37.22015381 -60.8897168 36.81530762 -60.18896484 36.39819336 C-54.36949333 33.03379012 -48.5276185 30.6533207 -42 29 C-40.74058594 28.65066406 -39.48117188 28.30132812 -38.18359375 27.94140625 C-31.0589478 26.38419197 -23.69959235 26.52891563 -16.4375 26.375 C-14.93682824 26.33674154 -13.4361766 26.29768549 -11.93554688 26.2578125 C-8.29047977 26.16120111 -4.64558106 26.08096556 -1 26 C-0.67 17.42 -0.34 8.84 0 0 Z " fill="#7DB2F8" transform="translate(225,109)"/>
<path d="M0 0 C1.98 0.99 1.98 0.99 4 2 C3.01 2.33 2.02 2.66 1 3 C1 10.26 1 17.52 1 25 C0.67 25 0.34 25 0 25 C0 16.75 0 8.5 0 0 Z " fill="#77AAEB" transform="translate(225,109)"/>
</svg>
